<svg width="113" height="96" fill="none" xmlns="http://www.w3.org/2000/svg"><g opacity=".26"><mask id="b" style="mask-type:alpha" maskUnits="userSpaceOnUse" x="11" y="0" width="11" height="11"><path d="M16.51 10.425c2.887 0 5.228-2.334 5.228-5.213C21.738 2.334 19.397 0 16.509 0c-2.887 0-5.228 2.334-5.228 5.212 0 2.88 2.34 5.213 5.228 5.213Z" fill="url(#a)"/></mask><g mask="url(#b)"><path d="M16.51 10.425c2.887 0 5.228-2.334 5.228-5.213C21.738 2.334 19.397 0 16.509 0c-2.887 0-5.228 2.334-5.228 5.212 0 2.88 2.34 5.213 5.228 5.213Z" fill="url(#c)"/></g><mask id="e" style="mask-type:alpha" maskUnits="userSpaceOnUse" x="41" y="0" width="12" height="11"><path d="M46.79 10.425c2.888 0 5.229-2.334 5.229-5.213C52.019 2.334 49.679 0 46.79 0s-5.229 2.334-5.229 5.212c0 2.88 2.341 5.213 5.229 5.213Z" fill="url(#d)"/></mask><g mask="url(#e)"><path d="M46.79 10.425c2.888 0 5.229-2.334 5.229-5.213C52.019 2.334 49.679 0 46.79 0s-5.229 2.334-5.229 5.212c0 2.88 2.341 5.213 5.229 5.213Z" fill="url(#f)"/></g><mask id="h" style="mask-type:alpha" maskUnits="userSpaceOnUse" x="71" y="0" width="12" height="11"><path d="M77.072 10.425c2.887 0 5.228-2.334 5.228-5.213C82.3 2.334 79.96 0 77.072 0s-5.229 2.334-5.229 5.212c0 2.88 2.341 5.213 5.229 5.213Z" fill="url(#g)"/></mask><g mask="url(#h)"><path d="M77.072 10.425c2.887 0 5.228-2.334 5.228-5.213C82.3 2.334 79.96 0 77.072 0s-5.229 2.334-5.229 5.212c0 2.88 2.341 5.213 5.229 5.213Z" fill="url(#i)"/></g><mask id="k" style="mask-type:alpha" maskUnits="userSpaceOnUse" x="102" y="0" width="11" height="11"><path d="M107.353 10.425c2.887 0 5.228-2.334 5.228-5.213 0-2.878-2.341-5.212-5.228-5.212-2.888 0-5.229 2.334-5.229 5.212 0 2.88 2.341 5.213 5.229 5.213Z" fill="url(#j)"/></mask><g mask="url(#k)"><path d="M107.353 10.425c2.887 0 5.228-2.334 5.228-5.213 0-2.878-2.341-5.212-5.228-5.212-2.888 0-5.229 2.334-5.229 5.212 0 2.88 2.341 5.213 5.229 5.213Z" fill="url(#l)"/></g><mask id="n" style="mask-type:alpha" maskUnits="userSpaceOnUse" x="11" y="26" width="11" height="11"><path d="M16.51 36.596c2.887 0 5.228-2.334 5.228-5.213 0-2.878-2.341-5.212-5.229-5.212-2.887 0-5.228 2.334-5.228 5.212 0 2.88 2.34 5.213 5.228 5.213Z" fill="url(#m)"/></mask><g mask="url(#n)"><path d="M16.51 36.596c2.887 0 5.228-2.334 5.228-5.213 0-2.878-2.341-5.212-5.229-5.212-2.887 0-5.228 2.334-5.228 5.212 0 2.88 2.34 5.213 5.228 5.213Z" fill="url(#o)"/></g><mask id="q" style="mask-type:alpha" maskUnits="userSpaceOnUse" x="41" y="26" width="12" height="11"><path d="M46.79 36.596c2.888 0 5.229-2.334 5.229-5.213 0-2.878-2.34-5.212-5.228-5.212s-5.229 2.334-5.229 5.212c0 2.88 2.341 5.213 5.229 5.213Z" fill="url(#p)"/></mask><g mask="url(#q)"><path d="M46.79 36.596c2.888 0 5.229-2.334 5.229-5.213 0-2.878-2.34-5.212-5.228-5.212s-5.229 2.334-5.229 5.212c0 2.88 2.341 5.213 5.229 5.213Z" fill="url(#r)"/></g><mask id="t" style="mask-type:alpha" maskUnits="userSpaceOnUse" x="71" y="26" width="12" height="11"><path d="M77.072 36.596c2.887 0 5.228-2.334 5.228-5.213 0-2.878-2.34-5.212-5.228-5.212s-5.229 2.334-5.229 5.212c0 2.88 2.341 5.213 5.229 5.213Z" fill="url(#s)"/></mask><g mask="url(#t)"><path d="M77.072 36.596c2.887 0 5.228-2.334 5.228-5.213 0-2.878-2.34-5.212-5.228-5.212s-5.229 2.334-5.229 5.212c0 2.88 2.341 5.213 5.229 5.213Z" fill="url(#u)"/></g><mask id="w" style="mask-type:alpha" maskUnits="userSpaceOnUse" x="102" y="26" width="11" height="11"><path d="M107.353 36.596c2.887 0 5.228-2.334 5.228-5.213 0-2.878-2.341-5.212-5.228-5.212-2.888 0-5.229 2.334-5.229 5.212 0 2.88 2.341 5.213 5.229 5.213Z" fill="url(#v)"/></mask><g mask="url(#w)"><path d="M107.353 36.596c2.887 0 5.228-2.334 5.228-5.213 0-2.878-2.341-5.212-5.228-5.212-2.888 0-5.229 2.334-5.229 5.212 0 2.88 2.341 5.213 5.229 5.213Z" fill="url(#x)"/></g><mask id="z" style="mask-type:alpha" maskUnits="userSpaceOnUse" x="11" y="52" width="11" height="11"><path d="M16.51 62.713c2.887 0 5.228-2.334 5.228-5.213s-2.341-5.212-5.229-5.212c-2.887 0-5.228 2.333-5.228 5.212 0 2.879 2.34 5.213 5.228 5.213Z" fill="url(#y)"/></mask><g mask="url(#z)"><path d="M16.51 62.713c2.887 0 5.228-2.334 5.228-5.213s-2.341-5.212-5.229-5.212c-2.887 0-5.228 2.333-5.228 5.212 0 2.879 2.34 5.213 5.228 5.213Z" fill="url(#A)"/></g><mask id="C" style="mask-type:alpha" maskUnits="userSpaceOnUse" x="41" y="52" width="12" height="11"><path d="M46.79 62.713c2.888 0 5.229-2.334 5.229-5.213s-2.34-5.212-5.228-5.212-5.229 2.333-5.229 5.212c0 2.879 2.341 5.213 5.229 5.213Z" fill="url(#B)"/></mask><g mask="url(#C)"><path d="M46.79 62.713c2.888 0 5.229-2.334 5.229-5.213s-2.34-5.212-5.228-5.212-5.229 2.333-5.229 5.212c0 2.879 2.341 5.213 5.229 5.213Z" fill="url(#D)"/></g><mask id="F" style="mask-type:alpha" maskUnits="userSpaceOnUse" x="71" y="52" width="12" height="11"><path d="M77.072 62.713c2.887 0 5.228-2.334 5.228-5.213s-2.34-5.212-5.228-5.212-5.229 2.333-5.229 5.212c0 2.879 2.341 5.213 5.229 5.213Z" fill="url(#E)"/></mask><g mask="url(#F)"><path d="M77.072 62.713c2.887 0 5.228-2.334 5.228-5.213s-2.34-5.212-5.228-5.212-5.229 2.333-5.229 5.212c0 2.879 2.341 5.213 5.229 5.213Z" fill="url(#G)"/></g><mask id="I" style="mask-type:alpha" maskUnits="userSpaceOnUse" x="102" y="52" width="11" height="11"><path d="M107.353 62.713c2.887 0 5.228-2.334 5.228-5.213s-2.341-5.212-5.228-5.212c-2.888 0-5.229 2.333-5.229 5.212 0 2.879 2.341 5.213 5.229 5.213Z" fill="url(#H)"/></mask><g mask="url(#I)"><path d="M107.353 62.713c2.887 0 5.228-2.334 5.228-5.213s-2.341-5.212-5.228-5.212c-2.888 0-5.229 2.333-5.229 5.212 0 2.879 2.341 5.213 5.229 5.213Z" fill="url(#J)"/></g><mask id="L" style="mask-type:alpha" maskUnits="userSpaceOnUse" x="11" y="78" width="11" height="11"><path d="M16.51 88.883c2.887 0 5.228-2.333 5.228-5.212 0-2.879-2.341-5.213-5.229-5.213-2.887 0-5.228 2.334-5.228 5.213s2.34 5.212 5.228 5.212Z" fill="url(#K)"/></mask><g mask="url(#L)"><path d="M16.51 88.883c2.887 0 5.228-2.333 5.228-5.212 0-2.879-2.341-5.213-5.229-5.213-2.887 0-5.228 2.334-5.228 5.213s2.34 5.212 5.228 5.212Z" fill="url(#M)"/></g><mask id="O" style="mask-type:alpha" maskUnits="userSpaceOnUse" x="41" y="78" width="12" height="11"><path d="M46.79 88.883c2.888 0 5.229-2.333 5.229-5.212 0-2.879-2.34-5.213-5.228-5.213s-5.229 2.334-5.229 5.213 2.341 5.212 5.229 5.212Z" fill="url(#N)"/></mask><g mask="url(#O)"><path d="M46.79 88.883c2.888 0 5.229-2.333 5.229-5.212 0-2.879-2.34-5.213-5.228-5.213s-5.229 2.334-5.229 5.213 2.341 5.212 5.229 5.212Z" fill="url(#P)"/></g><mask id="R" style="mask-type:alpha" maskUnits="userSpaceOnUse" x="71" y="78" width="12" height="11"><path d="M77.072 88.883c2.887 0 5.228-2.333 5.228-5.212 0-2.879-2.34-5.213-5.228-5.213s-5.229 2.334-5.229 5.213 2.341 5.212 5.229 5.212Z" fill="url(#Q)"/></mask><g mask="url(#R)"><path d="M77.072 88.883c2.887 0 5.228-2.333 5.228-5.212 0-2.879-2.34-5.213-5.228-5.213s-5.229 2.334-5.229 5.213 2.341 5.212 5.229 5.212Z" fill="url(#S)"/></g><mask id="U" style="mask-type:alpha" maskUnits="userSpaceOnUse" x="102" y="78" width="11" height="11"><path d="M107.353 88.883c2.887 0 5.228-2.333 5.228-5.212 0-2.879-2.341-5.213-5.228-5.213-2.888 0-5.229 2.334-5.229 5.213s2.341 5.212 5.229 5.212Z" fill="url(#T)"/></mask><g mask="url(#U)"><path d="M107.353 88.883c2.887 0 5.228-2.333 5.228-5.212 0-2.879-2.341-5.213-5.228-5.213-2.888 0-5.229 2.334-5.229 5.213s2.341 5.212 5.229 5.212Z" fill="url(#V)"/></g></g><defs><linearGradient id="a" x1="66.277" y1="131.134" x2="-5.124" y2="-50.67" gradientUnits="userSpaceOnUse"><stop stop-color="#fff"/><stop offset="1" stop-color="#fff"/></linearGradient><linearGradient id="c" x1="66.277" y1="131.134" x2="-5.124" y2="-50.67" gradientUnits="userSpaceOnUse"><stop stop-color="#fff"/><stop offset="1" stop-color="#fff"/></linearGradient><linearGradient id="d" x1="96.558" y1="131.134" x2="25.157" y2="-50.67" gradientUnits="userSpaceOnUse"><stop stop-color="#fff"/><stop offset="1" stop-color="#fff"/></linearGradient><linearGradient id="f" x1="96.558" y1="131.134" x2="25.157" y2="-50.67" gradientUnits="userSpaceOnUse"><stop stop-color="#fff"/><stop offset="1" stop-color="#fff"/></linearGradient><linearGradient id="g" x1="126.839" y1="131.134" x2="55.438" y2="-50.67" gradientUnits="userSpaceOnUse"><stop stop-color="#fff"/><stop offset="1" stop-color="#fff"/></linearGradient><linearGradient id="i" x1="126.839" y1="131.134" x2="55.438" y2="-50.67" gradientUnits="userSpaceOnUse"><stop stop-color="#fff"/><stop offset="1" stop-color="#fff"/></linearGradient><linearGradient id="j" x1="157.12" y1="131.134" x2="85.719" y2="-50.67" gradientUnits="userSpaceOnUse"><stop stop-color="#fff"/><stop offset="1" stop-color="#fff"/></linearGradient><linearGradient id="l" x1="157.12" y1="131.134" x2="85.719" y2="-50.67" gradientUnits="userSpaceOnUse"><stop stop-color="#fff"/><stop offset="1" stop-color="#fff"/></linearGradient><linearGradient id="m" x1="66.277" y1="157.303" x2="-5.123" y2="-24.499" gradientUnits="userSpaceOnUse"><stop stop-color="#fff"/><stop offset="1" stop-color="#fff"/></linearGradient><linearGradient id="o" x1="66.277" y1="157.303" x2="-5.123" y2="-24.499" gradientUnits="userSpaceOnUse"><stop stop-color="#fff"/><stop offset="1" stop-color="#fff"/></linearGradient><linearGradient id="p" x1="96.558" y1="157.303" x2="25.158" y2="-24.499" gradientUnits="userSpaceOnUse"><stop stop-color="#fff"/><stop offset="1" stop-color="#fff"/></linearGradient><linearGradient id="r" x1="96.558" y1="157.303" x2="25.158" y2="-24.499" gradientUnits="userSpaceOnUse"><stop stop-color="#fff"/><stop offset="1" stop-color="#fff"/></linearGradient><linearGradient id="s" x1="126.839" y1="157.303" x2="55.439" y2="-24.499" gradientUnits="userSpaceOnUse"><stop stop-color="#fff"/><stop offset="1" stop-color="#fff"/></linearGradient><linearGradient id="u" x1="126.839" y1="157.303" x2="55.439" y2="-24.499" gradientUnits="userSpaceOnUse"><stop stop-color="#fff"/><stop offset="1" stop-color="#fff"/></linearGradient><linearGradient id="v" x1="157.12" y1="157.303" x2="85.72" y2="-24.499" gradientUnits="userSpaceOnUse"><stop stop-color="#fff"/><stop offset="1" stop-color="#fff"/></linearGradient><linearGradient id="x" x1="157.12" y1="157.303" x2="85.72" y2="-24.499" gradientUnits="userSpaceOnUse"><stop stop-color="#fff"/><stop offset="1" stop-color="#fff"/></linearGradient><linearGradient id="y" x1="66.277" y1="183.421" x2="-5.124" y2="1.618" gradientUnits="userSpaceOnUse"><stop stop-color="#fff"/><stop offset="1" stop-color="#fff"/></linearGradient><linearGradient id="A" x1="66.277" y1="183.421" x2="-5.124" y2="1.618" gradientUnits="userSpaceOnUse"><stop stop-color="#fff"/><stop offset="1" stop-color="#fff"/></linearGradient><linearGradient id="B" x1="96.558" y1="183.421" x2="25.157" y2="1.618" gradientUnits="userSpaceOnUse"><stop stop-color="#fff"/><stop offset="1" stop-color="#fff"/></linearGradient><linearGradient id="D" x1="96.558" y1="183.421" x2="25.157" y2="1.618" gradientUnits="userSpaceOnUse"><stop stop-color="#fff"/><stop offset="1" stop-color="#fff"/></linearGradient><linearGradient id="E" x1="126.839" y1="183.421" x2="55.438" y2="1.618" gradientUnits="userSpaceOnUse"><stop stop-color="#fff"/><stop offset="1" stop-color="#fff"/></linearGradient><linearGradient id="G" x1="126.839" y1="183.421" x2="55.438" y2="1.618" gradientUnits="userSpaceOnUse"><stop stop-color="#fff"/><stop offset="1" stop-color="#fff"/></linearGradient><linearGradient id="H" x1="157.12" y1="183.421" x2="85.719" y2="1.618" gradientUnits="userSpaceOnUse"><stop stop-color="#fff"/><stop offset="1" stop-color="#fff"/></linearGradient><linearGradient id="J" x1="157.12" y1="183.421" x2="85.719" y2="1.618" gradientUnits="userSpaceOnUse"><stop stop-color="#fff"/><stop offset="1" stop-color="#fff"/></linearGradient><linearGradient id="K" x1="66.277" y1="209.592" x2="-5.124" y2="27.788" gradientUnits="userSpaceOnUse"><stop stop-color="#fff"/><stop offset="1" stop-color="#fff"/></linearGradient><linearGradient id="M" x1="66.277" y1="209.592" x2="-5.124" y2="27.788" gradientUnits="userSpaceOnUse"><stop stop-color="#fff"/><stop offset="1" stop-color="#fff"/></linearGradient><linearGradient id="N" x1="96.558" y1="209.592" x2="25.157" y2="27.788" gradientUnits="userSpaceOnUse"><stop stop-color="#fff"/><stop offset="1" stop-color="#fff"/></linearGradient><linearGradient id="P" x1="96.558" y1="209.592" x2="25.157" y2="27.788" gradientUnits="userSpaceOnUse"><stop stop-color="#fff"/><stop offset="1" stop-color="#fff"/></linearGradient><linearGradient id="Q" x1="126.839" y1="209.592" x2="55.438" y2="27.788" gradientUnits="userSpaceOnUse"><stop stop-color="#fff"/><stop offset="1" stop-color="#fff"/></linearGradient><linearGradient id="S" x1="126.839" y1="209.592" x2="55.438" y2="27.788" gradientUnits="userSpaceOnUse"><stop stop-color="#fff"/><stop offset="1" stop-color="#fff"/></linearGradient><linearGradient id="T" x1="157.12" y1="209.592" x2="85.719" y2="27.788" gradientUnits="userSpaceOnUse"><stop stop-color="#fff"/><stop offset="1" stop-color="#fff"/></linearGradient><linearGradient id="V" x1="157.12" y1="209.592" x2="85.719" y2="27.788" gradientUnits="userSpaceOnUse"><stop stop-color="#fff"/><stop offset="1" stop-color="#fff"/></linearGradient></defs></svg>